<mxfile host="65bd71144e">
    <diagram id="OD9cQ7uxcBFR5S-n5x26" name="Page-1">
        <mxGraphModel dx="2348" dy="940" grid="1" gridSize="10" guides="1" tooltips="1" connect="1" arrows="1" fold="1" page="1" pageScale="1" pageWidth="850" pageHeight="1100" math="0" shadow="0">
            <root>
                <mxCell id="0"/>
                <mxCell id="1" parent="0"/>
                <mxCell id="51" value="脑机接口的五层协议规划" style="fillColor=none;strokeColor=#5A6C86;dashed=1;verticalAlign=top;fontStyle=1;fontColor=#5A6C86;fontSize=17;" vertex="1" parent="1">
                    <mxGeometry x="-30" y="30" width="720" height="530" as="geometry"/>
                </mxCell>
                <mxCell id="68" value="时间标记" style="shape=rect;rounded=1;whiteSpace=wrap;html=1;shadow=0;strokeColor=none;fillColor=#B1DDF0;arcSize=30;fontSize=14;spacingLeft=42;fontStyle=1;fontColor=#100f0f;align=left;" vertex="1" parent="1">
                    <mxGeometry x="492.5" y="315" width="130" height="40" as="geometry"/>
                </mxCell>
                <mxCell id="67" value="设备控制" style="shape=rect;rounded=1;whiteSpace=wrap;html=1;shadow=0;strokeColor=none;fillColor=#B1DDF0;arcSize=30;fontSize=14;spacingLeft=42;fontStyle=1;fontColor=#100f0f;align=left;verticalAlign=middle;" vertex="1" parent="1">
                    <mxGeometry x="495.75" y="212" width="130" height="40" as="geometry"/>
                </mxCell>
                <mxCell id="52" value="支持的功能与开发的技术点" style="fillColor=none;strokeColor=#5A6C86;dashed=1;verticalAlign=top;fontStyle=1;fontColor=#5A6C86;fontSize=17;" vertex="1" parent="1">
                    <mxGeometry x="-490" y="30" width="440" height="530" as="geometry"/>
                </mxCell>
                <mxCell id="2" value="生理层" style="shape=step;perimeter=stepPerimeter;whiteSpace=wrap;html=1;fixedSize=1;size=10;direction=south;fillColor=#10739E;strokeColor=none;rounded=0;fontStyle=1;fontColor=#f8f2f2;fontSize=14;" vertex="1" parent="1">
                    <mxGeometry x="40" y="106" width="70" height="80" as="geometry"/>
                </mxCell>
                <mxCell id="3" value="采集层" style="shape=step;perimeter=stepPerimeter;whiteSpace=wrap;html=1;fixedSize=1;size=10;direction=south;fillColor=#F2931E;strokeColor=none;rounded=0;fontStyle=1;fontColor=#f8f2f2;fontSize=14;" vertex="1" parent="1">
                    <mxGeometry x="40" y="197" width="70" height="80" as="geometry"/>
                </mxCell>
                <mxCell id="4" value="同步层" style="shape=step;perimeter=stepPerimeter;whiteSpace=wrap;html=1;fixedSize=1;size=10;direction=south;fillColor=#AE4132;strokeColor=none;rounded=0;fontStyle=1;fontColor=#f8f2f2;fontSize=14;" vertex="1" parent="1">
                    <mxGeometry x="40" y="300" width="70" height="80" as="geometry"/>
                </mxCell>
                <mxCell id="6" value="计算层" style="shape=step;perimeter=stepPerimeter;whiteSpace=wrap;html=1;fixedSize=1;size=10;direction=south;fillColor=#12AAB5;strokeColor=none;rounded=0;fontStyle=1;fontColor=#f8f2f2;fontSize=14;" vertex="1" parent="1">
                    <mxGeometry x="40" y="400" width="70" height="80" as="geometry"/>
                </mxCell>
                <mxCell id="27" style="edgeStyle=orthogonalEdgeStyle;html=1;exitX=0.5;exitY=1;exitDx=0;exitDy=0;entryX=0.5;entryY=0;entryDx=0;entryDy=0;fontSize=14;fontColor=#1d1b1b;dashed=1;strokeColor=#808080;" edge="1" parent="1" source="7" target="8">
                    <mxGeometry relative="1" as="geometry"/>
                </mxCell>
                <mxCell id="7" value="&lt;font style=&quot;&quot;&gt;&lt;font color=&quot;#10739e&quot;&gt;&lt;b&gt;生理信号1&lt;/b&gt;&lt;/font&gt;&lt;br&gt;&lt;br&gt;&lt;font style=&quot;font-size: 10px;&quot; size=&quot;1&quot;&gt;真实的脑电、肌电、眼动、&lt;br&gt;按键等生理信号&lt;/font&gt;&lt;/font&gt;" style="rounded=1;strokeColor=none;fillColor=#EEEEEE;align=center;arcSize=12;verticalAlign=top;whiteSpace=wrap;html=1;fontSize=12;" vertex="1" parent="1">
                    <mxGeometry x="140" y="106" width="140" height="70" as="geometry"/>
                </mxCell>
                <mxCell id="24" style="edgeStyle=orthogonalEdgeStyle;html=1;exitX=0.5;exitY=1;exitDx=0;exitDy=0;entryX=0.5;entryY=0;entryDx=0;entryDy=0;fontSize=14;fontColor=#1d1b1b;dashed=1;strokeColor=#808080;" edge="1" parent="1" source="8" target="9">
                    <mxGeometry relative="1" as="geometry"/>
                </mxCell>
                <mxCell id="8" value="&lt;font style=&quot;font-size: 10px&quot;&gt;&lt;font style=&quot;font-size: 12px&quot; color=&quot;#F2931E&quot;&gt;&lt;b&gt;脑电放大器&lt;/b&gt;&lt;/font&gt;&lt;br&gt;&lt;br&gt;&lt;font size=&quot;1&quot;&gt;针对脑电、肌电、眼动等生理信号的专用采集设备&lt;/font&gt;&lt;/font&gt;" style="rounded=1;strokeColor=none;fillColor=#EEEEEE;align=center;arcSize=12;verticalAlign=top;whiteSpace=wrap;html=1;fontSize=12;" vertex="1" parent="1">
                    <mxGeometry x="140" y="197" width="140" height="70" as="geometry"/>
                </mxCell>
                <mxCell id="26" style="edgeStyle=orthogonalEdgeStyle;html=1;exitX=0.5;exitY=1;exitDx=0;exitDy=0;entryX=0.5;entryY=0;entryDx=0;entryDy=0;fontSize=14;fontColor=#1d1b1b;" edge="1" parent="1" source="9" target="11">
                    <mxGeometry relative="1" as="geometry"/>
                </mxCell>
                <mxCell id="9" value="&lt;font style=&quot;&quot;&gt;&lt;font style=&quot;font-size: 12px;&quot; color=&quot;#AE4132&quot;&gt;&lt;b&gt;时间同步（TCP协议或并口线）&lt;/b&gt;&lt;/font&gt;&lt;br&gt;&lt;br&gt;&lt;font size=&quot;1&quot;&gt;针对同一被试的不同信号、甚至不同被试的不同信号&lt;br&gt;进行跨设备的时间同步&lt;/font&gt;&lt;br&gt;&lt;/font&gt;" style="rounded=1;strokeColor=none;fillColor=#EEEEEE;align=center;arcSize=12;verticalAlign=top;whiteSpace=wrap;html=1;fontSize=12;" vertex="1" parent="1">
                    <mxGeometry x="140" y="300" width="320" height="70" as="geometry"/>
                </mxCell>
                <mxCell id="16" style="edgeStyle=none;html=1;entryX=0;entryY=0.5;entryDx=0;entryDy=0;fontSize=14;fontColor=#f8f2f2;" edge="1" parent="1" source="11" target="12">
                    <mxGeometry relative="1" as="geometry"/>
                </mxCell>
                <mxCell id="11" value="&lt;font style=&quot;font-size: 10px&quot;&gt;&lt;font style=&quot;font-size: 12px&quot; color=&quot;#12AAB5&quot;&gt;&lt;b&gt;实时或离线计算&lt;/b&gt;&lt;/font&gt;&lt;br&gt;&lt;br&gt;&lt;font size=&quot;1&quot;&gt;针对同步的和良好定义的数据进行计算&lt;/font&gt;&lt;/font&gt;" style="rounded=1;strokeColor=none;fillColor=#EEEEEE;align=center;arcSize=12;verticalAlign=top;whiteSpace=wrap;html=1;fontSize=12;" vertex="1" parent="1">
                    <mxGeometry x="140" y="400" width="200" height="70" as="geometry"/>
                </mxCell>
                <mxCell id="18" style="edgeStyle=orthogonalEdgeStyle;html=1;exitX=0.5;exitY=0;exitDx=0;exitDy=0;entryX=1;entryY=0.5;entryDx=0;entryDy=0;fontSize=14;fontColor=#f8f2f2;" edge="1" parent="1" source="12" target="20">
                    <mxGeometry relative="1" as="geometry"/>
                </mxCell>
                <mxCell id="53" style="edgeStyle=orthogonalEdgeStyle;html=1;exitX=0.5;exitY=0;exitDx=0;exitDy=0;entryX=1;entryY=0.5;entryDx=0;entryDy=0;strokeColor=#000000;fontSize=17;fontColor=#23445d;" edge="1" parent="1" source="12" target="9">
                    <mxGeometry relative="1" as="geometry"/>
                </mxCell>
                <mxCell id="55" style="edgeStyle=orthogonalEdgeStyle;html=1;strokeColor=#000000;fontSize=17;fontColor=#23445d;" edge="1" parent="1" source="12" target="54">
                    <mxGeometry relative="1" as="geometry"/>
                </mxCell>
                <mxCell id="61" style="edgeStyle=orthogonalEdgeStyle;html=1;exitX=0.5;exitY=0;exitDx=0;exitDy=0;entryX=1;entryY=0.5;entryDx=0;entryDy=0;strokeColor=#000000;fontSize=17;fontColor=#000000;" edge="1" parent="1" source="12" target="21">
                    <mxGeometry relative="1" as="geometry"/>
                </mxCell>
                <mxCell id="12" value="应用旁路" style="shape=step;perimeter=stepPerimeter;whiteSpace=wrap;html=1;fixedSize=1;size=10;fillColor=#10739E;strokeColor=none;fontSize=17;fontStyle=1;align=center;fontColor=#f8f2f2;" vertex="1" parent="1">
                    <mxGeometry x="405" y="420" width="170" height="30" as="geometry"/>
                </mxCell>
                <mxCell id="13" value="&amp;nbsp;- 被试管理&lt;br&gt;&amp;nbsp;- 实验实施&lt;br&gt;&amp;nbsp;- 标签注入&lt;br&gt;&amp;nbsp;- 反馈收集&lt;br&gt;&amp;nbsp;- 系统校验等其他旁路功能" style="shape=rect;fillColor=#B1DDF0;strokeColor=none;fontSize=12;html=1;whiteSpace=wrap;align=left;verticalAlign=top;spacing=5;fontColor=#1d1b1b;rounded=1;" vertex="1" parent="1">
                    <mxGeometry x="405" y="460" width="170" height="90" as="geometry"/>
                </mxCell>
                <mxCell id="28" style="edgeStyle=orthogonalEdgeStyle;html=1;exitX=0.5;exitY=1;exitDx=0;exitDy=0;entryX=0.5;entryY=0;entryDx=0;entryDy=0;fontSize=14;fontColor=#1d1b1b;dashed=1;strokeColor=#808080;" edge="1" parent="1" source="20" target="21">
                    <mxGeometry relative="1" as="geometry"/>
                </mxCell>
                <mxCell id="20" value="&lt;font style=&quot;&quot;&gt;&lt;font color=&quot;#10739e&quot;&gt;&lt;b&gt;生理信号x&lt;/b&gt;&lt;/font&gt;&lt;br&gt;&lt;br&gt;&lt;font style=&quot;font-size: 10px;&quot; size=&quot;1&quot;&gt;真实的脑电、肌电、眼动&lt;/font&gt;&lt;span style=&quot;font-size: 10px;&quot;&gt;、&lt;br&gt;按键&lt;/span&gt;&lt;font style=&quot;font-size: 10px;&quot; size=&quot;1&quot;&gt;等生理信号&lt;/font&gt;&lt;/font&gt;" style="rounded=1;strokeColor=none;fillColor=#EEEEEE;align=center;arcSize=12;verticalAlign=top;whiteSpace=wrap;html=1;fontSize=12;" vertex="1" parent="1">
                    <mxGeometry x="320" y="106" width="140" height="70" as="geometry"/>
                </mxCell>
                <mxCell id="25" style="edgeStyle=orthogonalEdgeStyle;html=1;exitX=0.5;exitY=1;exitDx=0;exitDy=0;entryX=0.5;entryY=0;entryDx=0;entryDy=0;fontSize=14;fontColor=#1d1b1b;dashed=1;strokeColor=#808080;" edge="1" parent="1" source="21" target="9">
                    <mxGeometry relative="1" as="geometry"/>
                </mxCell>
                <mxCell id="21" value="&lt;font style=&quot;font-size: 10px&quot;&gt;&lt;font style=&quot;font-size: 12px&quot; color=&quot;#F2931E&quot;&gt;&lt;b&gt;眼动信号等&lt;/b&gt;&lt;/font&gt;&lt;br&gt;&lt;br&gt;&lt;font size=&quot;1&quot;&gt;针对脑电、肌电、眼动等生理信号的专用采集设备&lt;/font&gt;&lt;/font&gt;" style="rounded=1;strokeColor=none;fillColor=#EEEEEE;align=center;arcSize=12;verticalAlign=top;whiteSpace=wrap;html=1;fontSize=12;" vertex="1" parent="1">
                    <mxGeometry x="320" y="197" width="140" height="70" as="geometry"/>
                </mxCell>
                <mxCell id="31" value="" style="sketch=0;points=[[0,0,0],[0.25,0,0],[0.5,0,0],[0.75,0,0],[1,0,0],[0,1,0],[0.25,1,0],[0.5,1,0],[0.75,1,0],[1,1,0],[0,0.25,0],[0,0.5,0],[0,0.75,0],[1,0.25,0],[1,0.5,0],[1,0.75,0]];outlineConnect=0;gradientDirection=north;fillColor=#b1ddf0;strokeColor=#10739e;dashed=0;verticalLabelPosition=bottom;verticalAlign=top;align=center;html=1;fontSize=12;fontStyle=0;aspect=fixed;shape=mxgraph.aws4.resourceIcon;resIcon=mxgraph.aws4.machine_learning;" vertex="1" parent="1">
                    <mxGeometry x="545" y="460" width="30" height="30" as="geometry"/>
                </mxCell>
                <mxCell id="34" value="MI、RSVP、SSVEP等实验刺激呈现" style="shape=rect;rounded=1;whiteSpace=wrap;html=1;shadow=0;strokeColor=none;fillColor=#B1DDF0;arcSize=30;fontSize=14;spacingLeft=42;fontStyle=1;fontColor=#100f0f;align=left;" vertex="1" parent="1">
                    <mxGeometry x="494.5" y="120" width="180" height="40" as="geometry"/>
                </mxCell>
                <mxCell id="30" value="" style="sketch=0;points=[[0,0,0],[0.25,0,0],[0.5,0,0],[0.75,0,0],[1,0,0],[0,1,0],[0.25,1,0],[0.5,1,0],[0.75,1,0],[1,1,0],[0,0.25,0],[0,0.5,0],[0,0.75,0],[1,0.25,0],[1,0.5,0],[1,0.75,0]];outlineConnect=0;fontColor=#232F3E;gradientColor=#F34482;gradientDirection=north;fillColor=#BC1356;strokeColor=#ffffff;dashed=0;verticalLabelPosition=bottom;verticalAlign=top;align=center;html=1;fontSize=12;fontStyle=0;aspect=fixed;shape=mxgraph.aws4.resourceIcon;resIcon=mxgraph.aws4.ar_vr;" vertex="1" parent="1">
                    <mxGeometry x="495.75" y="125.75" width="28.5" height="28.5" as="geometry"/>
                </mxCell>
                <mxCell id="36" value="" style="verticalLabelPosition=middle;verticalAlign=middle;html=1;shape=mxgraph.infographic.cylinder;fillColor=#12AAB5;strokeColor=none;shadow=0;align=left;labelPosition=right;spacingLeft=10;fontStyle=1;fontColor=#12AAB5;fontSize=14;" vertex="1" parent="1">
                    <mxGeometry x="-85" y="320" width="100" height="25" as="geometry"/>
                </mxCell>
                <mxCell id="37" value="" style="verticalLabelPosition=middle;verticalAlign=middle;html=1;shape=mxgraph.infographic.cylinder;fillColor=#23445D;strokeColor=none;shadow=0;align=left;labelPosition=right;spacingLeft=10;fontStyle=1;fontColor=#23445D;fontSize=14;" vertex="1" parent="1">
                    <mxGeometry x="-85" y="300" width="100" height="25" as="geometry"/>
                </mxCell>
                <mxCell id="38" value="" style="verticalLabelPosition=middle;verticalAlign=middle;html=1;shape=mxgraph.infographic.cylinder;fillColor=#AE4132;strokeColor=none;shadow=0;align=left;labelPosition=right;spacingLeft=10;fontStyle=1;fontColor=#AE4132;fontSize=14;" vertex="1" parent="1">
                    <mxGeometry x="-85" y="280" width="100" height="25" as="geometry"/>
                </mxCell>
                <mxCell id="39" value="" style="verticalLabelPosition=middle;verticalAlign=middle;html=1;shape=mxgraph.infographic.cylinder;fillColor=#F2931E;strokeColor=none;shadow=0;align=left;labelPosition=right;spacingLeft=10;fontStyle=1;fontColor=#F2931E;fontSize=14;" vertex="1" parent="1">
                    <mxGeometry x="-85" y="260" width="100" height="25" as="geometry"/>
                </mxCell>
                <mxCell id="40" value="" style="verticalLabelPosition=middle;verticalAlign=middle;html=1;shape=mxgraph.infographic.cylinder;fillColor=#10739E;strokeColor=none;shadow=0;align=left;labelPosition=right;spacingLeft=10;fontStyle=1;fontColor=#10739E;fontSize=14;" vertex="1" parent="1">
                    <mxGeometry x="-85" y="240" width="100" height="25" as="geometry"/>
                </mxCell>
                <mxCell id="41" value="生理层" style="strokeWidth=1;shadow=0;dashed=0;align=center;html=1;shape=mxgraph.mockup.text.callout;linkText=;textSize=17;textColor=#666666;callDir=NW;callStyle=line;fontSize=17;fontColor=#10739E;align=left;verticalAlign=top;strokeColor=#666666;fillColor=#4D9900;flipV=0;fontStyle=1;" vertex="1" parent="1">
                    <mxGeometry x="-225" y="80" width="130" height="160" as="geometry"/>
                </mxCell>
                <mxCell id="42" value="采集层" style="strokeWidth=1;shadow=0;dashed=0;align=center;html=1;shape=mxgraph.mockup.text.callout;linkText=;textSize=17;textColor=#666666;callDir=NW;callStyle=line;fontSize=17;fontColor=#F2931E;align=left;verticalAlign=top;strokeColor=#666666;fillColor=#4D9900;flipV=0;fontStyle=1;" vertex="1" parent="1">
                    <mxGeometry x="-225" y="160" width="130" height="110" as="geometry"/>
                </mxCell>
                <mxCell id="43" value="同步层" style="strokeWidth=1;shadow=0;dashed=0;align=center;html=1;shape=mxgraph.mockup.text.callout;linkText=;textSize=17;textColor=#666666;callDir=NW;callStyle=line;fontSize=17;fontColor=#AE4132;align=left;verticalAlign=top;strokeColor=#666666;fillColor=#4D9900;flipV=0;fontStyle=1;" vertex="1" parent="1">
                    <mxGeometry x="-225" y="240" width="130" height="50" as="geometry"/>
                </mxCell>
                <mxCell id="44" value="应用旁路" style="strokeWidth=1;shadow=0;dashed=0;align=center;html=1;shape=mxgraph.mockup.text.callout;linkText=;textSize=17;textColor=#666666;callDir=SW;callStyle=line;fontSize=17;fontColor=#23445D;align=left;verticalAlign=bottom;strokeColor=#666666;fillColor=#4D9900;flipV=0;fontStyle=1;" vertex="1" parent="1">
                    <mxGeometry x="-225" y="310" width="130" height="50" as="geometry"/>
                </mxCell>
                <mxCell id="45" value="计算层" style="strokeWidth=1;shadow=0;dashed=0;align=center;html=1;shape=mxgraph.mockup.text.callout;linkText=;textSize=17;textColor=#666666;callDir=SW;callStyle=line;fontSize=17;fontColor=#12AAB5;align=left;verticalAlign=bottom;strokeColor=#666666;fillColor=#4D9900;flipV=0;fontStyle=1;" vertex="1" parent="1">
                    <mxGeometry x="-225" y="330" width="130" height="120" as="geometry"/>
                </mxCell>
                <mxCell id="46" value="……，只要是有用的信号，应支持尽支持。" style="rounded=0;whiteSpace=wrap;shadow=0;strokeColor=none;strokeWidth=6;fillColor=none;fontSize=12;align=right;html=1;fontColor=#100f0f;" vertex="1" parent="1">
                    <mxGeometry x="-400" y="110" width="240" height="50" as="geometry"/>
                </mxCell>
                <mxCell id="47" value="支持多被试、多设备的同步数据采集，&lt;br&gt;收集的数据包括脑电、肌电、眼动、按键等，&lt;br&gt;可扩展支持开源硬件，如压力传感器等。" style="rounded=0;whiteSpace=wrap;shadow=0;strokeColor=none;strokeWidth=6;fillColor=none;fontSize=12;align=right;html=1;fontColor=#100f0f;" vertex="1" parent="1">
                    <mxGeometry x="-430" y="190" width="270" height="50" as="geometry"/>
                </mxCell>
                <mxCell id="48" value="支持TCP协议的多机远程同步、&lt;br&gt;无并口线时可达到5ms时间精度。&lt;br&gt;（数值通过Neuroscan软件测试）" style="rounded=0;whiteSpace=wrap;shadow=0;strokeColor=none;strokeWidth=6;fillColor=none;fontSize=12;align=right;html=1;fontColor=#100f0f;" vertex="1" parent="1">
                    <mxGeometry x="-400" y="270" width="240" height="50" as="geometry"/>
                </mxCell>
                <mxCell id="49" value="支持MI、RSVP、SSVEP等多种BCI实验范式；&lt;br&gt;通过同步层交互实现实验条件与生理信号对齐；&lt;br&gt;通过计算层交互实现反馈计算与标签获取。" style="rounded=0;whiteSpace=wrap;shadow=0;strokeColor=none;strokeWidth=6;fillColor=none;fontSize=12;align=right;html=1;fontColor=#100f0f;" vertex="1" parent="1">
                    <mxGeometry x="-440" y="370" width="280" height="50" as="geometry"/>
                </mxCell>
                <mxCell id="50" value="适配多种机器学习算法，&lt;br&gt;支持无参数模型、有训练模型和预训练模型等。" style="rounded=0;whiteSpace=wrap;shadow=0;strokeColor=none;strokeWidth=6;fillColor=none;fontSize=12;align=right;html=1;fontColor=#100f0f;" vertex="1" parent="1">
                    <mxGeometry x="-420" y="460" width="260" height="50" as="geometry"/>
                </mxCell>
                <mxCell id="54" value="实验存档" style="sketch=0;outlineConnect=0;fontColor=#232F3E;gradientColor=none;fillColor=#232F3D;strokeColor=none;dashed=0;verticalLabelPosition=bottom;verticalAlign=top;align=center;html=1;fontSize=12;fontStyle=0;aspect=fixed;pointerEvents=1;shape=mxgraph.aws4.documents2;" vertex="1" parent="1">
                    <mxGeometry x="616.97" y="483" width="37.79" height="44" as="geometry"/>
                </mxCell>
                <mxCell id="60" style="edgeStyle=orthogonalEdgeStyle;html=1;entryX=0.75;entryY=0;entryDx=0;entryDy=0;strokeColor=#000000;fontSize=17;fontColor=#000000;" edge="1" parent="1" source="56" target="12">
                    <mxGeometry relative="1" as="geometry"/>
                </mxCell>
                <mxCell id="56" value="主试干预" style="sketch=0;outlineConnect=0;gradientColor=none;fontColor=#000000;strokeColor=none;fillColor=#000000;dashed=0;verticalLabelPosition=bottom;verticalAlign=top;align=center;html=1;fontSize=12;fontStyle=0;aspect=fixed;shape=mxgraph.aws4.illustration_notification;pointerEvents=1" vertex="1" parent="1">
                    <mxGeometry x="605.0000000000001" y="360" width="61.73" height="50" as="geometry"/>
                </mxCell>
                <mxCell id="65" value="" style="sketch=0;outlineConnect=0;fontColor=#232F3E;gradientColor=none;fillColor=#B0084D;strokeColor=none;dashed=0;verticalLabelPosition=bottom;verticalAlign=top;align=center;html=1;fontSize=12;fontStyle=0;aspect=fixed;pointerEvents=1;shape=mxgraph.aws4.systems_manager_opscenter;" vertex="1" parent="1">
                    <mxGeometry x="492.5" y="317.5" width="35" height="35" as="geometry"/>
                </mxCell>
                <mxCell id="66" value="" style="sketch=0;outlineConnect=0;fontColor=#232F3E;gradientColor=none;fillColor=#B0084D;strokeColor=none;dashed=0;verticalLabelPosition=bottom;verticalAlign=middle;align=center;html=1;fontSize=12;fontStyle=0;aspect=fixed;pointerEvents=1;shape=mxgraph.aws4.automation;" vertex="1" parent="1">
                    <mxGeometry x="494.5" y="215.5" width="33" height="33" as="geometry"/>
                </mxCell>
            </root>
        </mxGraphModel>
    </diagram>
</mxfile>